<svg xmlns="http://www.w3.org/2000/svg" width="600" height="900" viewBox="0 0 600 900" role="img" aria-label="Poster no disponible">
  <defs>
    <linearGradient id="bg" x1="0" y1="0" x2="1" y2="1">
      <stop offset="0%" stop-color="#1b2036"/>
      <stop offset="100%" stop-color="#0d101f"/>
    </linearGradient>
    <linearGradient id="shine" x1="0" y1="0" x2="1" y2="0">
      <stop offset="0%" stop-color="#3b4a78" stop-opacity="0.15"/>
      <stop offset="50%" stop-color="#6c82c9" stop-opacity="0.2"/>
      <stop offset="100%" stop-color="#3b4a78" stop-opacity="0.12"/>
    </linearGradient>
  </defs>
  <rect width="600" height="900" rx="36" fill="url(#bg)"/>
  <rect x="36" y="36" width="528" height="828" rx="28" fill="none" stroke="#2c3559" stroke-width="3"/>
  <rect x="60" y="84" width="480" height="520" rx="20" fill="#11162a" stroke="#2b3557" stroke-width="2"/>
  <rect x="60" y="84" width="480" height="520" rx="20" fill="url(#shine)"/>
  <g fill="#b9c4ec">
    <rect x="140" y="650" width="320" height="18" rx="9" opacity="0.9"/>
    <rect x="120" y="686" width="360" height="14" rx="7" opacity="0.7"/>
  </g>
  <g fill="#e7ecff">
    <rect x="210" y="210" width="180" height="220" rx="18" opacity="0.12"/>
    <path d="M300 238c-48 0-86 38-86 86s38 86 86 86 86-38 86-86-38-86-86-86zm0 36a50 50 0 110 100 50 50 0 010-100z" opacity="0.4"/>
    <rect x="230" y="450" width="140" height="20" rx="10" opacity="0.35"/>
  </g>
  <text x="300" y="760" text-anchor="middle" font-family="Segoe UI, Arial, sans-serif" font-size="28" fill="#d7defa">Poster no disponible</text>
  <text x="300" y="800" text-anchor="middle" font-family="Segoe UI, Arial, sans-serif" font-size="16" fill="#9aa6d9">Ultrapelis</text>
</svg>
